<svg id="icon-logo" xmlns="http://www.w3.org/2000/svg" viewBox="0 0 518.92 891.52"><path d="M284.46 891.52a253.56 253.56 0 0 1-104.75-22.54c-35.8-16.38-64.4-40.53-82.7-69.85-22.4-35.9-40.28-96.74 1.77-182.7a30 30 0 0 1 11.27-12.39 330.94 330.94 0 0 1-49.35-40.88c-34-34.5-53.9-72.27-59.25-112.2-4.5-33.64 1.65-67.54 18.28-100.76 14.75-29.43 37.86-58.3 68.82-86-15.94-28-25.4-62.28-24-91.4 2.54-54.23 25.5-99.56 66.4-131.1C165.74 14.76 211.6 0 260.02 0c66.34 0 124.8 27.3 156.43 73 20.73 30 39.45 81.67 10.82 157.52a30 30 0 0 1-27.76 19.4h-.3a30 30 0 0 1-11.29-2.2 535.4 535.4 0 0 1 58.22 49.94c46.12 46.25 70.55 93.14 72.64 139.37 2.42 53.8-24.84 104.57-81.1 151.13 18.5 27.42 30.75 55.35 36.57 83.37 7.36 35.42 4.38 69.75-8.84 102.05-13.14 32.1-35.9 60.3-65.83 81.53-28.1 19.94-61.37 32.53-93.7 35.43-7.02.66-14.24.98-21.43.98zM157.1 631.82c6 22.37 16 40.1 28.93 51.6 14.34 12.7 28.48 14.6 35.63 14.6 12.37 0 18.82-5.24 19.18-6.9.67-3.13-7.33-24.17-61.62-48.68q-11.38-5.14-22.12-10.63zM215 384.9c-2.56 5.07-1.95 7.9-1.65 9.28 1.75 8.15 11.8 16.07 42.46 38.42l49.48 37.08a23.45 23.45 0 0 0 3.48-7.5c-5.6-14.12-20.4-24.9-49.63-45.27-12.85-8.95-27.7-19.26-44.14-32zm101.32-216.52c-8 0-13.1 5.16-14.45 10-2.73 9.73 9.36 18.32 14.68 21.56 21.76 13.24 41.54 26.26 59.52 39.16a29.7 29.7 0 0 1-4.72-7.94c-18.57-46.3-40.6-62.78-55.03-62.78z"/><path class="alert" d="M402.74 577.42c189.64-140.25 25.33-274.53-101.77-351.9-85-51.76 34.6-164.1 98.23-5.58C485.15-7.78 104.46-40.15 94.46 174.18c-1.56 33.4 15.63 76.46 38 99.34a13.78 13.78 0 0 0-11.3 2.19c-165 136.26-84.3 269.53 70.46 339.4 195.35 88.18-26.8 195.34-65.86 14.5-78.3 159.9 65.8 241.14 177.44 231.07 102.77-9.25 214.88-134.52 89.3-282.42 3.96 1.1 7.26 1.1 10.24-.85zm-80.57-81c-11 11.6-4.83 15.63-4.1 22-93-76.65-127.25-86.32-134-117.86-2.1-9.7-2.5-25.4 16.1-45.86 8.63-9.5 3-15.26 2.6-18.6 72.93 63.62 121.12 77.2 135.05 118.1 3.32 9.84-.77 26.56-15.66 42.2z" fill="#fff"/></svg>